<svg viewBox="0 0 296 298" fill="none" xmlns="http://www.w3.org/2000/svg">
  <mask id="gemini-mask" width="296" height="298" x="0" y="0" maskUnits="userSpaceOnUse" style="mask-type:alpha">
    <path fill="#3186FF" d="M141.201 4.886C143.483-1.284 152.243-1.185 154.385 5.034L160.37 22.404C178.952 76.31 221.247 118.907 271.627 135.453L290.931 142.45C297.074 144.677 297.087 153.36 290.951 155.605L271.601 162.687C221.183 181.131 179.427 222.829 162.106 272.072L154.533 292.701C152.292 298.806 143.664 298.822 141.4 292.726L133.492 271.43C116.102 224.592 76.203 186.163 24.472 162.772L4.774 155.533C-1.328 153.29-1.344 144.666 4.749 142.401L24.832 134.934C75.77 116.001 115.912 75.514 133.291 26.28L141.201 4.886Z" />
  </mask>
  <g mask="url(#gemini-mask)">
    <g filter="url(#gemini-blur-blue)">
      <ellipse cx="163" cy="149" rx="196" ry="159" fill="#3689FF" />
    </g>
    <g filter="url(#gemini-blur-yellow-a)">
      <ellipse cx="33.5" cy="142.5" rx="68.5" ry="72.5" fill="#F6C013" />
    </g>
    <g filter="url(#gemini-blur-yellow-b)">
      <ellipse cx="19.5" cy="148.5" rx="68.5" ry="72.5" fill="#F6C013" />
    </g>
    <g filter="url(#gemini-blur-red-a)">
      <path d="M194 10.5C172 82.5 65.5 134.333 22.5 135L144 -66L194 10.5Z" fill="#FA4340" />
    </g>
    <g filter="url(#gemini-blur-red-b)">
      <path d="M190.5 -12.5C168.5 59.5 62 111.333 19 112L140.5 -89L190.5 -12.5Z" fill="#FA4340" />
    </g>
    <g filter="url(#gemini-blur-green-a)">
      <path d="M194.5 279.5C172.5 207.5 66 155.667 23 155L144.5 356L194.5 279.5Z" fill="#14BB69" />
    </g>
    <g filter="url(#gemini-blur-green-b)">
      <path d="M196.5 320.5C174.5 248.5 68 196.667 25 196L146.5 397L196.5 320.5Z" fill="#14BB69" />
    </g>
  </g>
  <defs>
    <filter id="gemini-blur-blue" x="-69" y="-46" width="464" height="390" color-interpolation-filters="sRGB" filterUnits="userSpaceOnUse">
      <feFlood flood-opacity="0" result="BackgroundImageFix" />
      <feBlend in="SourceGraphic" in2="BackgroundImageFix" result="shape" />
      <feGaussianBlur result="effect1_foregroundBlur" stdDeviation="18" />
    </filter>
    <filter id="gemini-blur-yellow-a" x="-99" y="6" width="265" height="273" color-interpolation-filters="sRGB" filterUnits="userSpaceOnUse">
      <feFlood flood-opacity="0" result="BackgroundImageFix" />
      <feBlend in="SourceGraphic" in2="BackgroundImageFix" result="shape" />
      <feGaussianBlur result="effect1_foregroundBlur" stdDeviation="32" />
    </filter>
    <filter id="gemini-blur-yellow-b" x="-113" y="12" width="265" height="273" color-interpolation-filters="sRGB" filterUnits="userSpaceOnUse">
      <feFlood flood-opacity="0" result="BackgroundImageFix" />
      <feBlend in="SourceGraphic" in2="BackgroundImageFix" result="shape" />
      <feGaussianBlur result="effect1_foregroundBlur" stdDeviation="32" />
    </filter>
    <filter id="gemini-blur-red-a" x="-41.5" y="-130" width="299.5" height="329" color-interpolation-filters="sRGB" filterUnits="userSpaceOnUse">
      <feFlood flood-opacity="0" result="BackgroundImageFix" />
      <feBlend in="SourceGraphic" in2="BackgroundImageFix" result="shape" />
      <feGaussianBlur result="effect1_foregroundBlur" stdDeviation="32" />
    </filter>
    <filter id="gemini-blur-red-b" x="-45" y="-153" width="299.5" height="329" color-interpolation-filters="sRGB" filterUnits="userSpaceOnUse">
      <feFlood flood-opacity="0" result="BackgroundImageFix" />
      <feBlend in="SourceGraphic" in2="BackgroundImageFix" result="shape" />
      <feGaussianBlur result="effect1_foregroundBlur" stdDeviation="32" />
    </filter>
    <filter id="gemini-blur-green-a" x="-41" y="91" width="299.5" height="329" color-interpolation-filters="sRGB" filterUnits="userSpaceOnUse">
      <feFlood flood-opacity="0" result="BackgroundImageFix" />
      <feBlend in="SourceGraphic" in2="BackgroundImageFix" result="shape" />
      <feGaussianBlur result="effect1_foregroundBlur" stdDeviation="32" />
    </filter>
    <filter id="gemini-blur-green-b" x="-39" y="132" width="299.5" height="329" color-interpolation-filters="sRGB" filterUnits="userSpaceOnUse">
      <feFlood flood-opacity="0" result="BackgroundImageFix" />
      <feBlend in="SourceGraphic" in2="BackgroundImageFix" result="shape" />
      <feGaussianBlur result="effect1_foregroundBlur" stdDeviation="32" />
    </filter>
  </defs>
</svg>
