<svg viewBox="0 0 2195.9 2430.9" fill="none" xmlns="http://www.w3.org/2000/svg">
  <g>
    <path d="M2195.9 2126.7C2196.8 2293.6 2062.2 2429.5 1895.4 2430.4C1883 2430.5 1870.5 2429.8 1858.2 2428.3C1703.4 2405.4 1590 2270.7 1593.8 2114.3V316.1C1590.1 159.5 1703.8 24.8 1858.7 2.1C2024.4 -17.3 2174.5 101.3 2193.9 267C2195.3 279.2 2196 291.4 2195.9 303.7L2195.9 2126.7Z" fill="#111111" />
    <path d="M301.1 1828.7C467.4 1828.7 602.2 1963.5 602.2 2129.8C602.2 2296.1 467.4 2430.9 301.1 2430.9C134.8 2430.9 0 2296.1 0 2129.8C0 1963.5 134.8 1828.7 301.1 1828.7ZM1093.3 916.2C926.2 925.4 796.6 1065.5 800.5 1232.8V2041.5C800.5 2261 897.1 2394.2 1038.6 2422.6C1201.9 2455.7 1361 2350.2 1394.1 2186.9C1398.2 2166.9 1400.2 2146.6 1400.1 2126.2V1218.8C1400.4 1051.9 1265.4 916.4 1098.5 916.1C1096.8 916.1 1095 916.1 1093.3 916.2Z" fill="#111111" />
  </g>
</svg>
