<svg xmlns="http://www.w3.org/2000/svg" width="24" height="24" fill="none"><path d="M 6 4 L 8 4 L 8 2 L 10 2 L 10 4 L 14 4 L 14 2 L 16 2 L 16 4 L 18 4 L 18 6 L 6 6 Z M 6 18 L 18 18 L 18 20 L 16 20 L 16 22 L 14 22 L 14 20 L 10 20 L 10 22 L 8 22 L 8 20 L 6 20 Z M 18 6 L 20 6 L 20 8 L 22 8 L 22 10 L 20 10 L 20 14 L 22 14 L 22 16 L 20 16 L 20 18 L 18 18 Z M 4 6 L 6 6 L 6 18 L 4 18 L 4 16 L 2 16 L 2 14 L 4 14 L 4 10 L 2 10 L 2 8 L 4 8 Z M 15 15 L 17 15 L 17 17 L 15 17 Z M 15 7 L 17 7 L 17 9 L 15 9 Z M 7 7 L 9 7 L 9 9 L 7 9 Z M 7 15 L 9 15 L 9 17 L 7 17 Z" fill="rgb(0, 0, 0)"></path></svg>