<svg xmlns="http://www.w3.org/2000/svg" width="24" height="24" fill="none"><path d="M 11 11 L 13 11 L 13 13 L 11 13 Z M 15 7 L 17 7 L 17 9 L 15 9 Z M 7 7 L 9 7 L 9 9 L 7 9 Z M 7 15 L 9 15 L 9 17 L 7 17 Z M 15 15 L 17 15 L 17 17 L 15 17 Z M 5 17 L 7 17 L 7 19 L 5 19 Z M 5 5 L 7 5 L 7 7 L 5 7 Z M 9 13 L 11 13 L 11 15 L 9 15 Z M 13 13 L 15 13 L 15 15 L 13 15 Z M 13 9 L 15 9 L 15 11 L 13 11 Z M 9 9 L 11 9 L 11 11 L 9 11 Z M 17 5 L 19 5 L 19 7 L 17 7 Z M 17 17 L 19 17 L 19 19 L 17 19 Z" fill="rgb(0, 0, 0)"></path></svg>