<svg xmlns="http://www.w3.org/2000/svg" width="24" height="24" fill="none"><path d="M 8 4 L 16 4 L 16 6 L 8 6 Z M 15 8 L 15 10 L 11 10 L 11 11 L 15 11 L 15 16 L 13 16 L 13 17 L 11 17 L 11 16 L 9 16 L 9 14 L 13 14 L 13 13 L 9 13 L 9 8 L 11 8 L 11 7 L 13 7 L 13 8 Z M 8 18 L 16 18 L 16 20 L 8 20 Z M 16 6 L 18 6 L 18 8 L 16 8 Z M 18 8 L 20 8 L 20 16 L 18 16 Z M 4 8 L 6 8 L 6 16 L 4 16 Z M 6 6 L 8 6 L 8 8 L 6 8 Z M 6 16 L 8 16 L 8 18 L 6 18 Z M 16 16 L 18 16 L 18 18 L 16 18 Z" fill="rgb(0, 0, 0)"></path></svg>