<svg xmlns="http://www.w3.org/2000/svg" width="24" height="24" fill="none"><path d="M 7 5 L 17 5 L 17 7 L 7 7 Z M 7 13 L 17 13 L 17 15 L 7 15 Z M 7 17 L 17 17 L 17 19 L 7 19 Z M 17 7 L 19 7 L 19 9 L 17 9 Z M 17 11 L 19 11 L 19 13 L 17 13 Z M 17 15 L 19 15 L 19 17 L 17 17 Z M 19 9 L 21 9 L 21 11 L 19 11 Z M 19 13 L 21 13 L 21 15 L 19 15 Z M 5 7 L 7 7 L 7 9 L 5 9 Z M 3 9 L 5 9 L 5 11 L 3 11 Z M 3 13 L 5 13 L 5 15 L 3 15 Z M 5 11 L 7 11 L 7 13 L 5 13 Z M 5 15 L 7 15 L 7 17 L 5 17 Z" fill="rgb(0, 0, 0)"></path></svg>