<svg xmlns="http://www.w3.org/2000/svg" width="24" height="24" fill="none"><path d="M 7 3 L 17 3 L 17 5 L 7 5 Z M 7 19 L 17 19 L 17 21 L 7 21 Z M 17 5 L 19 5 L 19 19 L 17 19 Z M 5 5 L 7 5 L 7 19 L 5 19 Z M 8 6 L 16 6 L 16 9 L 8 9 Z M 8 10 L 10 10 L 10 12 L 8 12 Z M 8 13 L 10 13 L 10 15 L 8 15 Z M 8 16 L 10 16 L 10 18 L 8 18 Z M 11 10 L 13 10 L 13 12 L 11 12 Z M 11 13 L 13 13 L 13 15 L 11 15 Z M 11 16 L 13 16 L 13 18 L 11 18 Z M 14 10 L 16 10 L 16 12 L 14 12 Z M 14 13 L 16 13 L 16 15 L 14 15 Z M 14 16 L 16 16 L 16 18 L 14 18 Z" fill="rgb(0, 0, 0)"></path></svg>