<svg xmlns="http://www.w3.org/2000/svg" width="24" height="24" fill="none"><path d="M 5 9 L 11 9 L 11 7 L 13 7 L 13 9 L 19 9 L 19 11 L 5 11 Z M 5 18 L 19 18 L 19 20 L 5 20 Z M 19 11 L 21 11 L 21 18 L 19 18 Z M 3 11 L 5 11 L 5 18 L 3 18 Z M 9 5 L 11 5 L 11 7 L 9 7 Z M 11 3 L 15 3 L 15 5 L 11 5 Z M 16 15 L 18 15 L 18 17 L 16 17 Z M 9 15 L 15 15 L 15 17 L 9 17 Z M 6 12 L 8 12 L 8 14 L 6 14 Z M 6 15 L 8 15 L 8 17 L 6 17 Z M 12 12 L 14 12 L 14 14 L 12 14 Z M 9 12 L 11 12 L 11 14 L 9 14 Z M 15 12 L 18 12 L 18 14 L 15 14 Z" fill="rgb(0, 0, 0)"></path></svg>