<svg xmlns="http://www.w3.org/2000/svg" width="24" height="24" fill="none"><path d="M 8 4 L 16 4 L 16 6 L 8 6 Z M 8 18 L 16 18 L 16 20 L 8 20 Z M 16 6 L 20 6 L 20 8 L 16 8 Z M 20 8 L 22 8 L 22 16 L 20 16 Z M 2 8 L 4 8 L 4 16 L 2 16 Z M 4 6 L 8 6 L 8 8 L 4 8 Z M 10 10 L 12 10 L 12 12 L 10 12 Z M 12 12 L 14 12 L 14 14 L 12 14 Z M 14 10 L 16 10 L 16 12 L 14 12 Z M 8 12 L 10 12 L 10 14 L 8 14 Z M 2 18 L 4 18 L 4 20 L 2 20 Z M 4 16 L 8 16 L 8 18 L 4 18 Z M 16 16 L 20 16 L 20 18 L 16 18 Z" fill="rgb(0, 0, 0)"></path></svg>