<svg xmlns="http://www.w3.org/2000/svg" width="24" height="24" fill="none"><path d="M 20 14 L 22 14 L 22 21 L 2 21 L 2 14 L 4 14 L 4 19 L 8 19 L 8 14 L 10 14 L 10 19 L 11 19 L 11 12 L 13 12 L 13 19 L 14 19 L 14 14 L 16 14 L 16 19 L 20 19 Z M 13 8 L 17 8 L 17 11 L 15 11 L 15 10 L 13 10 Z M 7 8 L 11 8 L 11 10 L 9 10 L 9 11 L 7 11 Z M 16 5 L 18 5 L 18 7 L 16 7 Z M 6 5 L 8 5 L 8 7 L 6 7 Z M 8 3 L 16 3 L 16 5 L 8 5 Z M 18 7 L 20 7 L 20 14 L 18 14 Z M 4 7 L 6 7 L 6 14 L 4 14 Z" fill="rgb(0, 0, 0)"></path></svg>