<svg xmlns="http://www.w3.org/2000/svg" width="24" height="24" fill="none"><path d="M 20 14 L 22 14 L 22 19 L 20 19 Z M 9 14 L 11 14 L 11 19 L 13 19 L 13 14 L 15 14 L 15 16 L 17 16 L 17 19 L 20 19 L 20 21 L 4 21 L 4 19 L 7 19 L 7 16 L 9 16 Z M 8 11 L 11 11 L 11 10 L 13 10 L 13 11 L 16 11 L 16 13 L 8 13 Z M 16 7 L 16 5 L 18 5 L 18 7 L 17 7 L 17 9 L 18 9 L 18 7 L 20 7 L 20 14 L 18 14 L 18 11 L 16 11 L 16 9 L 8 9 L 8 11 L 6 11 L 6 14 L 4 14 L 4 7 L 6 7 L 6 9 L 7 9 L 7 7 L 6 7 L 6 5 L 8 5 L 8 7 Z M 8 3 L 16 3 L 16 5 L 8 5 Z M 2 14 L 4 14 L 4 19 L 2 19 Z" fill="rgb(0, 0, 0)"></path></svg>