<svg xmlns="http://www.w3.org/2000/svg" width="24" height="24" fill="none"><path d="M 18 12 L 20 12 L 20 14 L 18 14 Z M 6 14 L 18 14 L 18 16 L 6 16 Z M 2 18 L 4 18 L 4 16 L 6 16 L 6 18 L 18 18 L 18 16 L 20 16 L 20 18 L 22 18 L 22 20 L 2 20 Z M 4 12 L 2 12 L 2 10 L 0 10 L 0 8 L 7 8 L 7 10 L 4 10 Z M 22 12 L 20 12 L 20 10 L 17 10 L 17 8 L 24 8 L 24 10 L 22 10 Z M 4 12 L 6 12 L 6 14 L 4 14 Z M 15 6 L 17 6 L 17 8 L 15 8 Z M 7 6 L 9 6 L 9 8 L 7 8 Z M 14 10 L 16 10 L 16 12 L 14 12 Z M 8 10 L 10 10 L 10 12 L 8 12 Z M 9 4 L 15 4 L 15 6 L 9 6 Z" fill="rgb(0, 0, 0)"></path></svg>