<svg xmlns="http://www.w3.org/2000/svg" width="24" height="24" fill="none"><path d="M 7 3 L 17 3 L 17 5 L 7 5 Z M 7 19 L 13 19 L 13 17 L 19 17 L 19 19 L 17 19 L 17 21 L 7 21 Z M 17 5 L 19 5 L 19 7 L 17 7 Z M 19 7 L 21 7 L 21 17 L 19 17 L 19 15 L 5 15 L 5 17 L 3 17 L 3 7 L 5 7 L 5 8 L 10 8 L 10 10 L 5 10 L 5 13 L 19 13 Z M 5 5 L 7 5 L 7 7 L 5 7 Z M 5 17 L 7 17 L 7 19 L 5 19 Z M 16 8 L 18 8 L 18 10 L 16 10 Z M 14 6 L 16 6 L 16 8 L 14 8 Z M 14 10 L 16 10 L 16 12 L 14 12 Z M 12 8 L 14 8 L 14 10 L 12 10 Z" fill="rgb(0, 0, 0)"></path></svg>