<svg xmlns="http://www.w3.org/2000/svg" width="24" height="24" fill="none"><path d="M 8 4 L 16 4 L 16 6 L 8 6 Z M 8 18 L 16 18 L 16 20 L 8 20 Z M 16 6 L 18 6 L 18 8 L 16 8 Z M 18 8 L 20 8 L 20 16 L 18 16 Z M 4 8 L 6 8 L 6 16 L 4 16 Z M 6 6 L 8 6 L 8 8 L 6 8 Z M 8 10 L 9 10 L 9 9 L 11 9 L 11 11 L 10 11 L 10 12 L 8 12 Z M 13 13 L 15 13 L 15 15 L 14 15 L 14 16 L 12 16 L 12 14 L 13 14 Z M 10 12 L 12 12 L 12 14 L 10 14 Z M 6 16 L 8 16 L 8 18 L 6 18 Z M 4 18 L 6 18 L 6 20 L 4 20 Z M 16 16 L 18 16 L 18 18 L 16 18 Z" fill="rgb(0, 0, 0)"></path></svg>