<svg xmlns="http://www.w3.org/2000/svg" width="24" height="24" fill="none"><path d="M 20 12 L 22 12 L 22 19 L 20 19 Z M 9 14 L 11 14 L 11 12 L 13 12 L 13 14 L 15 14 L 15 16 L 9 16 Z M 13 9 L 15 9 L 15 8 L 17 8 L 17 12 L 13 12 Z M 11 9 L 11 12 L 7 12 L 7 8 L 9 8 L 9 9 Z M 4 19 L 20 19 L 20 21 L 4 21 Z M 16 5 L 18 5 L 18 7 L 16 7 Z M 6 5 L 8 5 L 8 7 L 6 7 Z M 4 7 L 2 7 L 2 3 L 6 3 L 6 5 L 4 5 Z M 22 7 L 20 7 L 20 5 L 18 5 L 18 3 L 22 3 Z M 8 3 L 16 3 L 16 5 L 8 5 Z M 18 7 L 20 7 L 20 12 L 18 12 Z M 4 7 L 6 7 L 6 12 L 4 12 Z M 2 12 L 4 12 L 4 19 L 2 19 Z" fill="rgb(0, 0, 0)"></path></svg>