<svg xmlns="http://www.w3.org/2000/svg" width="24" height="24" fill="none"><path d="M 20 13 L 22 13 L 22 17 L 20 17 Z M 9 12 L 15 12 L 15 13 L 18 13 L 18 15 L 15 15 L 15 14 L 9 14 L 9 15 L 6 15 L 6 13 L 9 13 Z M 17 8 L 17 10 L 13 10 L 13 7 L 15 7 L 15 8 Z M 7 8 L 9 8 L 9 7 L 11 7 L 11 10 L 7 10 Z M 6 19 L 9 19 L 9 18 L 10 18 L 10 17 L 14 17 L 14 18 L 15 18 L 15 19 L 18 19 L 18 21 L 15 21 L 15 20 L 9 20 L 9 21 L 6 21 Z M 18 4 L 18 6 L 16 6 L 16 5 L 8 5 L 8 6 L 6 6 L 6 4 L 8 4 L 8 3 L 16 3 L 16 4 Z M 18 6 L 20 6 L 20 13 L 18 13 Z M 4 6 L 6 6 L 6 13 L 4 13 Z M 2 13 L 4 13 L 4 17 L 2 17 Z M 18 17 L 20 17 L 20 19 L 18 19 Z M 15 16 L 17 16 L 17 18 L 15 18 Z M 7 16 L 9 16 L 9 18 L 7 18 Z M 4 17 L 6 17 L 6 19 L 4 19 Z" fill="rgb(0, 0, 0)"></path></svg>