<svg xmlns="http://www.w3.org/2000/svg" width="24" height="24" fill="none"><path d="M 8 3 L 16 3 L 16 5 L 8 5 Z M 16 5 L 18 5 L 18 7 L 16 7 Z M 9 8 L 11 8 L 11 10 L 9 10 Z M 11 10 L 13 10 L 13 12 L 11 12 Z M 13 8 L 15 8 L 15 10 L 13 10 Z M 10 17 L 8 17 L 8 13 L 16 13 L 16 17 L 14 17 L 14 15 L 10 15 Z M 8 18 L 8 20 L 6 20 L 6 22 L 4 22 L 4 7 L 6 7 L 6 18 Z M 16 18 L 18 18 L 18 7 L 20 7 L 20 22 L 18 22 L 18 20 L 16 20 Z M 14 20 L 16 20 L 16 22 L 14 22 Z M 8 20 L 10 20 L 10 22 L 8 22 Z M 10 18 L 14 18 L 14 20 L 10 20 Z M 6 5 L 8 5 L 8 7 L 6 7 Z" fill="rgb(0, 0, 0)"></path></svg>