<svg xmlns="http://www.w3.org/2000/svg" width="24" height="24" fill="none"><path d="M 8 3 L 16 3 L 16 5 L 8 5 Z M 8 19 L 16 19 L 16 21 L 8 21 Z M 10 15.5 L 14 15.5 L 14 16 L 16 16 L 16 15 L 18 15 L 18 19 L 16 19 L 16 17 L 14 17 L 14 17.5 L 10 17.5 L 10 17 L 8 17 L 8 19 L 6 19 L 6 15 L 8 15 L 8 16 L 10 16 Z M 16 6 L 16 5 L 18 5 L 18 7 L 6 7 L 6 5 L 8 5 L 8 6 Z M 18 11 L 18 7 L 20 7 L 20 15 L 18 15 L 18 12 L 13 12 L 13 9 L 16 9 L 16 11 Z M 6 12 L 6 15 L 4 15 L 4 7 L 6 7 L 6 11 L 8 11 L 8 9 L 11 9 L 11 12 Z M 11 13 L 13 13 L 13 14 L 11 14 Z M 15 10 L 14 10 L 14 11 L 15 11 Z M 10 10 L 9 10 L 9 11 L 10 11 Z" fill="rgb(0, 0, 0)"></path></svg>