<svg xmlns="http://www.w3.org/2000/svg" width="24" height="24" fill="none"><path d="M 20 14 L 22 14 L 22 17 L 20 17 Z M 9 16 L 10 16 L 10 14 L 14 14 L 14 16 L 15 16 L 15 18 L 9 18 Z M 8 11 L 11 11 L 11 10 L 13 10 L 13 11 L 16 11 L 16 13 L 8 13 Z M 16 7 L 16 5 L 18 5 L 18 7 L 17 7 L 17 9 L 18 9 L 18 7 L 20 7 L 20 14 L 18 14 L 18 11 L 16 11 L 16 9 L 8 9 L 8 11 L 6 11 L 6 14 L 4 14 L 4 7 L 6 7 L 6 9 L 7 9 L 7 7 L 6 7 L 6 5 L 8 5 L 8 7 Z M 4 17 L 8 17 L 8 19 L 4 19 Z M 8 3 L 16 3 L 16 5 L 8 5 Z M 2 14 L 4 14 L 4 17 L 2 17 Z M 16 17 L 20 17 L 20 19 L 16 19 Z M 8 19 L 16 19 L 16 21 L 8 21 Z" fill="rgb(0, 0, 0)"></path></svg>