<svg xmlns="http://www.w3.org/2000/svg" width="24" height="24" fill="none"><path d="M 8 3 L 16 3 L 16 5 L 18 5 L 18 7 L 19 7 L 19 8 L 21 8 L 21 13 L 19 13 L 19 15 L 18 15 L 18 18 L 16 18 L 16 13 L 17 13 L 17 9 L 16 9 L 16 7 L 8 7 L 8 9 L 7 9 L 7 13 L 8 13 L 8 18 L 6 18 L 6 15 L 5 15 L 5 13 L 3 13 L 3 8 L 5 8 L 5 7 L 6 7 L 6 5 L 8 5 Z M 14 21 L 10 21 L 10 20 L 8 20 L 8 18 L 10 18 L 10 19 L 14 19 L 14 18 L 16 18 L 16 20 L 14 20 Z M 10 15 L 14 15 L 14 17 L 10 17 Z M 9 10 L 11 10 L 11 12 L 9 12 Z M 13 10 L 15 10 L 15 12 L 13 12 Z" fill="rgb(0, 0, 0)"></path></svg>