<svg xmlns="http://www.w3.org/2000/svg" width="24" height="24" fill="none"><path d="M 20 13 L 22 13 L 22 19 L 20 19 Z M 8 10 L 11 10 L 11 9 L 13 9 L 13 10 L 16 10 L 16 12 L 8 12 Z M 16 6 L 16 5 L 8 5 L 8 6 Z M 18 4 L 18 6 L 17 6 L 17 8 L 18 8 L 18 6 L 20 6 L 20 13 L 18 13 L 18 10 L 16 10 L 16 8 L 8 8 L 8 10 L 6 10 L 6 13 L 4 13 L 4 6 L 6 6 L 6 8 L 7 8 L 7 6 L 6 6 L 6 4 L 8 4 L 8 3 L 16 3 L 16 4 Z M 4 19 L 8 19 L 8 15 L 10 15 L 10 17 L 11 17 L 11 13 L 13 13 L 13 17 L 14 17 L 14 15 L 16 15 L 16 19 L 20 19 L 20 21 L 14 21 L 14 19 L 10 19 L 10 21 L 4 21 Z M 2 13 L 4 13 L 4 19 L 2 19 Z" fill="rgb(0, 0, 0)"></path></svg>