<svg xmlns="http://www.w3.org/2000/svg" width="24" height="24" fill="none"><path d="M 8 3 L 16 3 L 16 5 L 8 5 Z M 8 19 L 8 21 L 2 21 L 2 16 L 4 16 L 4 19 Z M 16 19 L 20 19 L 20 16 L 22 16 L 22 21 L 16 21 Z M 10 19 L 14 19 L 14 21 L 10 21 Z M 8 17 L 10 17 L 10 19 L 8 19 Z M 16 5 L 18 5 L 18 7 L 16 7 Z M 18 3 L 20 3 L 20 5 L 18 5 Z M 9 7 L 11 7 L 11 9 L 9 9 Z M 8 13 L 13 13 L 13 15 L 8 15 Z M 18 7 L 20 7 L 20 16 L 18 16 L 18 12 L 6 12 L 6 16 L 4 16 L 4 7 L 6 7 L 6 10 L 18 10 Z M 6 5 L 8 5 L 8 7 L 6 7 Z M 14 13 L 16 13 L 16 15 L 14 15 Z M 12 7 L 15 7 L 15 9 L 12 9 Z M 14 17 L 16 17 L 16 19 L 14 19 Z" fill="rgb(0, 0, 0)"></path></svg>