<svg xmlns="http://www.w3.org/2000/svg" width="24" height="24" fill="none"><path d="M 10 7 L 14 7 L 14 9 L 10 9 Z M 8 18 L 16 18 L 16 20 L 8 20 Z M 16 3 L 18 3 L 18 5 L 16 5 Z M 14 5 L 16 5 L 16 7 L 14 7 Z M 18 5 L 20 5 L 20 14 L 22 14 L 22 16 L 18 16 Z M 4 5 L 6 5 L 6 16 L 2 16 L 2 14 L 4 14 Z M 6 3 L 8 3 L 8 5 L 6 5 Z M 8 5 L 10 5 L 10 7 L 8 7 Z M 9 11 L 11 11 L 11 13 L 9 13 Z M 11 14 L 13 14 L 13 16 L 11 16 Z M 13 11 L 15 11 L 15 13 L 13 13 Z M 6 16 L 8 16 L 8 18 L 6 18 Z M 4 18 L 6 18 L 6 20 L 4 20 Z M 16 16 L 18 16 L 18 18 L 16 18 Z M 18 18 L 20 18 L 20 20 L 18 20 Z" fill="rgb(0, 0, 0)"></path></svg>