<svg xmlns="http://www.w3.org/2000/svg" width="24" height="24" fill="none"><path d="M 9 3 L 15 3 L 15 5 L 9 5 Z M 15 5 L 17 5 L 17 7 L 15 7 Z M 17 7 L 19 7 L 19 21 L 17 21 L 17 18 L 15 18 L 15 16 L 17 16 Z M 5 7 L 7 7 L 7 16 L 9 16 L 9 18 L 7 18 L 7 21 L 5 21 Z M 7 5 L 9 5 L 9 7 L 7 7 Z M 9 8 L 11 8 L 11 10 L 9 10 Z M 11 11 L 13 11 L 13 14 L 11 14 Z M 13 8 L 15 8 L 15 10 L 13 10 Z M 11 16 L 13 16 L 13 18 L 11 18 Z M 9 18 L 11 18 L 11 21 L 9 21 Z M 13 18 L 15 18 L 15 21 L 13 21 Z" fill="rgb(0, 0, 0)"></path></svg>