<svg xmlns="http://www.w3.org/2000/svg" width="24" height="24" fill="none"><path d="M 14 6 L 14 4 L 16 4 L 16 8 L 8 8 L 8 4 L 10 4 L 10 6 Z M 10 2 L 14 2 L 14 4 L 10 4 Z M 8 20 L 16 20 L 16 22 L 8 22 Z M 16 8 L 18 8 L 18 10 L 16 10 Z M 14 10 L 16 10 L 16 12 L 14 12 Z M 18 10 L 20 10 L 20 18 L 18 18 Z M 4 10 L 6 10 L 6 18 L 4 18 Z M 6 8 L 8 8 L 8 10 L 6 10 Z M 8 10 L 10 10 L 10 12 L 8 12 Z M 6 18 L 8 18 L 8 20 L 6 20 Z M 8 16 L 10 16 L 10 18 L 8 18 Z M 16 18 L 18 18 L 18 20 L 16 20 Z M 14 16 L 16 16 L 16 18 L 14 18 Z M 13 13 L 15 13 L 15 15 L 13 15 Z M 11 11 L 13 11 L 13 13 L 11 13 Z M 11 15 L 13 15 L 13 17 L 11 17 Z M 9 13 L 11 13 L 11 15 L 9 15 Z" fill="rgb(0, 0, 0)"></path></svg>