<svg xmlns="http://www.w3.org/2000/svg" width="24" height="24" fill="none"><path d="M 8 4 L 11 4 L 11 2 L 13 2 L 13 4 L 16 4 L 16 6 L 8 6 Z M 8 18 L 16 18 L 16 20 L 8 20 Z M 16 6 L 18 6 L 18 8 L 16 8 Z M 18 8 L 20 8 L 20 16 L 18 16 Z M 4 8 L 6 8 L 6 16 L 4 16 Z M 6 6 L 8 6 L 8 8 L 6 8 Z M 9 9 L 11 9 L 11 11 L 9 11 Z M 13 9 L 15 9 L 15 11 L 13 11 Z M 9 13 L 15 13 L 15 17 L 13 17 L 13 15 L 11 15 L 11 17 L 9 17 Z M 6 16 L 8 16 L 8 18 L 6 18 Z M 16 16 L 18 16 L 18 18 L 16 18 Z" fill="rgb(0, 0, 0)"></path></svg>