<svg xmlns="http://www.w3.org/2000/svg" width="24" height="24" fill="none"><path d="M 10 4 L 16 4 L 16 6 L 10 6 Z M 10 16 L 16 16 L 16 18 L 10 18 Z M 10 10 L 12 10 L 12 8 L 14 8 L 14 10 L 16 10 L 16 12 L 14 12 L 14 14 L 12 14 L 12 12 L 10 12 Z M 16 6 L 18 6 L 18 8 L 16 8 Z M 18 8 L 20 8 L 20 14 L 18 14 Z M 6 8 L 8 8 L 8 14 L 6 14 Z M 8 6 L 10 6 L 10 8 L 8 8 Z M 8 14 L 10 14 L 10 16 L 8 16 Z M 6 16 L 8 16 L 8 18 L 6 18 Z M 4 18 L 6 18 L 6 20 L 4 20 Z M 16 14 L 18 14 L 18 16 L 16 16 Z" fill="rgb(0, 0, 0)"></path></svg>