<svg xmlns="http://www.w3.org/2000/svg" width="24" height="24" fill="none"><path d="M 9 3 L 15 3 L 15 5 L 9 5 Z M 15 5 L 17 5 L 17 7 L 15 7 Z M 17 3 L 19 3 L 19 5 L 17 5 Z M 17 7 L 19 7 L 19 11 L 17 11 Z M 5 13 L 7 13 L 7 18 L 17 18 L 17 13 L 19 13 L 19 20 L 17 20 L 17 21 L 15 21 L 15 20 L 9 20 L 9 21 L 7 21 L 7 20 L 5 20 Z M 7 5 L 9 5 L 9 7 L 7 7 Z M 5 3 L 7 3 L 7 5 L 5 5 Z M 9 8 L 11 8 L 11 10 L 9 10 Z M 7 11 L 17 11 L 17 13 L 7 13 Z M 13 8 L 15 8 L 15 10 L 13 10 Z M 5 7 L 7 7 L 7 11 L 5 11 Z" fill="rgb(0, 0, 0)"></path></svg>