<svg xmlns="http://www.w3.org/2000/svg" width="24" height="24" fill="none"><path d="M 4 4 L 20 4 L 20 6 L 4 6 Z M 4 18 L 12 18 L 12 16 L 14 16 L 14 18 L 16 18 L 16 16 L 18 16 L 18 18 L 20 18 L 20 20 L 4 20 Z M 20 6 L 22 6 L 22 18 L 20 18 Z M 2 6 L 4 6 L 4 12 L 6 12 L 6 14 L 4 14 L 4 18 L 2 18 Z M 6 10 L 8 10 L 8 12 L 6 12 Z M 16 8 L 18 8 L 18 10 L 16 10 Z M 12 12 L 14 12 L 14 14 L 12 14 Z M 8 12 L 10 12 L 10 14 L 8 14 Z M 10 14 L 12 14 L 12 16 L 10 16 Z M 14 14 L 16 14 L 16 16 L 14 16 Z" fill="rgb(0, 0, 0)"></path></svg>