<svg xmlns="http://www.w3.org/2000/svg" width="24" height="24" fill="none"><path d="M 6 2 L 18 2 L 18 4 L 6 4 Z M 6 20 L 10 20 L 10 18 L 12 18 L 12 20 L 18 20 L 18 22 L 6 22 Z M 18 4 L 20 4 L 20 20 L 18 20 L 18 18 L 16 18 L 16 16 L 18 16 Z M 4 4 L 6 4 L 6 14 L 8 14 L 8 16 L 6 16 L 6 20 L 4 20 Z M 7 8 L 9 8 L 9 10 L 7 10 Z M 9 10 L 11 10 L 11 12 L 9 12 Z M 11 8 L 13 8 L 13 10 L 11 10 Z M 9 6 L 11 6 L 11 8 L 9 8 Z M 8 16 L 10 16 L 10 18 L 8 18 Z M 12 12 L 14 12 L 14 14 L 12 14 Z M 10 14 L 12 14 L 12 16 L 10 16 Z M 14 14 L 16 14 L 16 16 L 14 16 Z" fill="rgb(0, 0, 0)"></path></svg>