<svg xmlns="http://www.w3.org/2000/svg" width="24" height="24" fill="none"><path d="M 10 6 L 14 6 L 14 8 L 10 8 Z M 6 15 L 18 15 L 18 16 L 20 16 L 20 18 L 18 18 L 18 17 L 6 17 L 6 18 L 4 18 L 4 16 L 6 16 Z M 20 8 L 22 8 L 22 16 L 20 16 Z M 2 8 L 4 8 L 4 16 L 2 16 Z M 7 10 L 9 10 L 9 12 L 7 12 Z M 18 6 L 20 6 L 20 8 L 18 8 Z M 4 6 L 6 6 L 6 8 L 4 8 Z M 14 4 L 18 4 L 18 6 L 14 6 Z M 6 4 L 10 4 L 10 6 L 6 6 Z M 15 10 L 17 10 L 17 12 L 15 12 Z M 6 18 L 8 18 L 8 20 L 6 20 Z M 16 18 L 18 18 L 18 20 L 16 20 Z" fill="rgb(0, 0, 0)"></path></svg>