<svg xmlns="http://www.w3.org/2000/svg" width="24" height="24" fill="none"><path d="M 7 7 L 11 7 L 11 3 L 18 3 L 18 6 L 16 6 L 16 5 L 13 5 L 13 7 L 17 7 L 17 9 L 7 9 Z M 8 18 L 16 18 L 16 20 L 8 20 Z M 21 9 L 21 13 L 20 13 L 20 16 L 18 16 L 18 13 L 19 13 L 19 11 L 17 11 L 17 9 Z M 3 9 L 7 9 L 7 11 L 5 11 L 5 13 L 6 13 L 6 16 L 4 16 L 4 13 L 3 13 Z M 9 10 L 11 10 L 11 12 L 9 12 Z M 13 10 L 15 10 L 15 12 L 13 12 Z M 10 15 L 14 15 L 14 17 L 10 17 Z M 14 13 L 16 13 L 16 15 L 14 15 Z M 8 13 L 10 13 L 10 15 L 8 15 Z M 6 16 L 8 16 L 8 18 L 6 18 Z M 16 16 L 18 16 L 18 18 L 16 18 Z" fill="rgb(0, 0, 0)"></path></svg>