<svg xmlns="http://www.w3.org/2000/svg" width="24" height="24" fill="none"><path d="M 10 8 L 14 8 L 14 10 L 10 10 Z M 10 14 L 14 14 L 14 16 L 10 16 Z M 15 7 L 17 7 L 17 9 L 15 9 Z M 5 5 L 7 5 L 7 7 L 5 7 Z M 17 5 L 19 5 L 19 7 L 17 7 Z M 14 10 L 16 10 L 16 14 L 14 14 Z M 8 10 L 10 10 L 10 14 L 8 14 Z M 7 7 L 9 7 L 9 9 L 7 9 Z M 7 15 L 9 15 L 9 17 L 7 17 Z M 5 17 L 7 17 L 7 19 L 5 19 Z M 15 15 L 17 15 L 17 17 L 15 17 Z M 17 17 L 19 17 L 19 19 L 17 19 Z M 11 17 L 13 17 L 13 21 L 11 21 Z M 11 3 L 13 3 L 13 7 L 11 7 Z M 3 11 L 7 11 L 7 13 L 3 13 Z M 17 11 L 21 11 L 21 13 L 17 13 Z" fill="rgb(0, 0, 0)"></path></svg>