<svg xmlns="http://www.w3.org/2000/svg" width="24" height="24" fill="none"><path d="M 16 4 L 18 4 L 18 6 L 16 6 Z M 6 14 L 8 14 L 8 10 L 6 10 L 6 8 L 8 8 L 8 6 L 10 6 L 10 8 L 14 8 L 14 6 L 16 6 L 16 8 L 18 8 L 18 10 L 16 10 L 16 14 L 18 14 L 18 16 L 16 16 L 16 18 L 14 18 L 14 16 L 10 16 L 10 18 L 8 18 L 8 16 L 6 16 Z M 14 14 L 14 10 L 10 10 L 10 14 Z M 6 4 L 8 4 L 8 6 L 6 6 Z M 16 18 L 18 18 L 18 20 L 16 20 Z M 6 18 L 8 18 L 8 20 L 6 20 Z M 4 16 L 6 16 L 6 18 L 4 18 Z M 4 6 L 6 6 L 6 8 L 4 8 Z M 18 6 L 20 6 L 20 8 L 18 8 Z M 18 16 L 20 16 L 20 18 L 18 18 Z" fill="rgb(0, 0, 0)"></path></svg>