<svg xmlns="http://www.w3.org/2000/svg" width="24" height="24" fill="none"><path d="M 17 6 L 19 6 L 19 8 L 17 8 Z M 9 6 L 11 6 L 11 8 L 9 8 Z M 15 4 L 17 4 L 17 6 L 15 6 Z M 7 4 L 9 4 L 9 6 L 7 6 Z M 11 18 L 13 18 L 13 20 L 11 20 Z M 17 12 L 19 12 L 19 14 L 17 14 Z M 5 12 L 7 12 L 7 14 L 5 14 Z M 3 8 L 5 8 L 5 12 L 3 12 Z M 19 8 L 21 8 L 21 12 L 19 12 Z M 15 14 L 17 14 L 17 16 L 15 16 Z M 7 14 L 9 14 L 9 16 L 7 16 Z M 13 6 L 15 6 L 15 8 L 13 8 Z M 5 6 L 7 6 L 7 8 L 5 8 Z M 11 8 L 13 8 L 13 10 L 11 10 Z M 9 16 L 11 16 L 11 18 L 9 18 Z M 13 16 L 15 16 L 15 18 L 13 18 Z" fill="rgb(0, 0, 0)"></path></svg>