<svg xmlns="http://www.w3.org/2000/svg" width="24" height="24" fill="none"><path d="M 13 4 L 15 4 L 15 6 L 13 6 Z M 8 4 L 11 4 L 11 6 L 8 6 Z M 15 2 L 17 2 L 17 4 L 15 4 Z M 11 16 L 13 16 L 13 18 L 11 18 Z M 15 6 L 18 6 L 18 8 L 15 8 Z M 18 8 L 20 8 L 20 10 L 18 10 Z M 16 10 L 18 10 L 18 14 L 16 14 Z M 18 14 L 20 14 L 20 16 L 18 16 Z M 4 8 L 6 8 L 6 16 L 4 16 Z M 6 6 L 8 6 L 8 8 L 6 8 Z M 11 6 L 13 6 L 13 8 L 11 8 Z M 6 16 L 8 16 L 8 18 L 6 18 Z M 8 18 L 11 18 L 11 20 L 8 20 Z M 16 16 L 18 16 L 18 18 L 16 18 Z M 13 18 L 16 18 L 16 20 L 13 20 Z" fill="rgb(0, 0, 0)"></path></svg>